<?xml version="1.0" encoding="UTF-8" standalone="no"?>
<svg
   width="3.4901752in"
   height="2.9423127in"
   viewBox="0 0 34.30982 28.929254"
   preserveAspectRatio="xMidYMid"
   version="1.1"
   id="svg14"
   sodipodi:docname="emacs-1-logo-svg-vector.svg"
   inkscape:version="1.1.2 (1:1.1+202202050950+0a00cf5339)"
   xmlns:inkscape="http://www.inkscape.org/namespaces/inkscape"
   xmlns:sodipodi="http://sodipodi.sourceforge.net/DTD/sodipodi-0.dtd"
   xmlns="http://www.w3.org/2000/svg"
   xmlns:svg="http://www.w3.org/2000/svg">
  <defs
     id="defs18" />
  <sodipodi:namedview
     id="namedview16"
     pagecolor="#505050"
     bordercolor="#eeeeee"
     borderopacity="1"
     inkscape:pageshadow="0"
     inkscape:pageopacity="0"
     inkscape:pagecheckerboard="0"
     showgrid="false"
     units="in"
     fit-margin-top="0"
     fit-margin-left="0"
     fit-margin-right="0"
     fit-margin-bottom="0"
     inkscape:zoom="0.36936937"
     inkscape:cx="1249.4268"
     inkscape:cy="1054.5"
     inkscape:window-width="1920"
     inkscape:window-height="1003"
     inkscape:window-x="0"
     inkscape:window-y="0"
     inkscape:window-maximized="1"
     inkscape:current-layer="svg14"
     inkscape:document-units="in" />
  <g
     id="g841"
     transform="matrix(0.13404653,0,0,0.13404653,-0.00535328,0)">
    <path
       d="m 255.568,162.465 a 9.062,9.062 0 0 0 -0.232,-0.583 c 0.087,-2.236 -0.577,-4.31 -1.958,-6.068 -1.773,-2.259 -4.582,-3.829 -8.506,-4.742 a 91.355,91.355 0 0 1 1.795,-0.535 l 4.548,-3.087 c 0.806,-0.547 1.005,-1.515 0.89,-2.602 -0.351,-3.302 -3.5,-5.582 -6.797,-5.187 -5.338,0.639 -13.694,1.68 -15.479,2.127 l -6.34,-2.407 a 11.62,11.62 0 0 0 -6.659,-0.486 88.29,88.29 0 0 0 -9.042,2.527 c 2.708,-15.206 9.729,-51.155 19.705,-77.002 l 0.069,-0.191 C 236.955,35.842 238.08,17.279 231.001,7.48 227.446,2.56 222.07,0.065 215.02,0.065 204.945,0.356 193.256,19.684 193.256,19.684 l -2.083,4.283 -1.274,1.273 -1.273,-1.62 -4.014,4.593 c -0.03,0.052 -2.973,5.16 -6.897,9.515 -1.748,1.224 -2.901,1.519 -3.572,1.544 -4.047,0.15 -4.328,-0.775 -4.563,-1.518 -0.256,-0.81 -0.854,-2.705 -2.98,-3.467 -1.319,-0.472 -2.782,-0.286 -4.013,0.513 -0.672,0.437 -1.411,1.07 -2.774,3.345 -0.084,0.018 -0.165,0.055 -0.249,0.078 1.2,-2.962 2.234,-6.226 3.081,-9.784 l -0.066,-1.733 c -0.144,-3.826 -4.901,-5.495 -7.405,-2.599 l -4.917,5.685 c -1.166,1.513 -2.197,2.85 -3.124,3.977 -0.727,0.342 -1.508,0.522 -2.503,0.588 -0.31,0.02 -0.602,0.042 -0.88,0.064 -2.13,0.165 -2.307,0.178 -4.234,-1.314 -2.969,-2.296 -8.009,-7.389 -17.502,-17.24 C 112.799,6.304 104.682,1.787 97.173,1.992 91.809,2.154 87.087,4.688 82.743,9.739 L 82.602,9.74 C 79.06,5.47 73.396,0 66.334,0 l -0.149,0.001 c -3.492,0.037 -7.223,2.315 -12.448,7.607 -3.279,2.616 -6.637,6.338 -9.886,9.94 -1.245,1.38 -2.424,2.687 -3.523,3.844 -3.129,2.449 -5.732,3.753 -7.539,3.774 -0.959,0.002 -3.886,0.044 -6.647,-8.696 L 22.622,5.326 19.47,13.242 18.239,9.347 7.118,37.271 l 0.658,1.57 c 0.486,1.158 4.986,11.338 13.342,12.123 8.574,0.797 16.61,-6.014 21.947,-11.284 4.352,-3.649 8.398,-8.144 11.656,-11.763 0.551,-0.612 1.083,-1.204 1.596,-1.767 1.981,0.765 5.895,3.365 9.557,8.041 l -4.623,5.621 C 49.048,54.64 47.772,56.19 40.141,68.746 30.564,84.505 28.718,94.608 34.498,99.633 c 1.263,1.097 4.451,3.338 9.405,3.338 1.736,0 3.691,-0.278 5.854,-0.975 a 266.471,266.471 0 0 0 -6.499,5.138 c -12.063,9.842 -25.061,22.115 -20.869,31.192 -0.062,1.852 0.37,3.549 1.259,5.019 -11.795,10.473 -27.191,30.762 -22.919,42.372 0.119,4.011 1.85,7.276 4.937,9.26 8.449,5.434 26.242,-4.355 38.62,-12.637 -0.523,1.502 -0.879,2.786 -0.999,3.726 l -0.467,3.663 1.236,0.312 -0.013,0.095 -0.467,3.671 3.59,0.897 c 1.231,0.31 2.186,0.245 3.55,-0.599 -1.346,4.402 -1.388,6.799 -1.38,7.277 l 0.211,13.302 2.875,-4.282 0.076,5.413 7.438,-11.082 c 0.05,-0.075 2.061,-3.071 5.32,-7.844 l 6.244,-9.038 -3.472,10.88 11.128,-8.897 c 6.402,-5.418 12.872,-12.205 18.021,-17.585 -0.926,2.528 -0.866,4.935 0.129,6.916 -0.197,2.771 0.904,5.23 3.135,6.823 4.304,3.071 12,2.076 20.252,-2.33 0.409,2.367 1.842,3.634 2.643,4.171 5.683,3.813 15.555,-2.952 23.52,-9.269 l 1.328,-1.054 c 0.542,3.699 2.548,6.636 5.721,8.256 1.745,0.892 3.745,1.332 5.968,1.332 5.343,0 11.973,-2.548 19.435,-7.498 0.995,2.41 2.765,4.37 5.188,5.662 5.184,2.763 12.516,1.991 20.958,-2.008 l 4.563,1.31 c 5.597,1.607 9.555,2.182 13.378,2.182 3.065,-10e-4 6.042,-0.37 9.706,-0.874 8.548,-1.173 18.797,-8.443 21.931,-15.556 0.496,-1.128 0.819,-2.248 0.968,-3.341 l -0.432,-4.506"
       fill="#ffffff"
       id="path2" />
    <path
       d="m 188.478,30.281 c 0,0 -9.613,16.85 -18.315,17.172 -10.2,0.378 -7.96,-6.103 -9.438,-5.142 -1.474,0.958 -7.134,12.944 -7.223,14.407 10.985,18.13 31.297,-12.458 34.976,-26.437 z M 21.758,46.815 c 14.006,1.316 29.593,-25.201 33.983,-25.072 4.391,0.129 13.296,7.095 18.029,16.818 6.231,-12.189 13.815,-17.603 26.391,-8.57 7.317,5.255 22.611,26.044 31.765,27.068 9.911,1.109 18.428,-8.323 22.533,-25.567 -5.682,7.36 -7.995,10.665 -13.688,11.04 -5.875,0.387 -5.359,1.55 -25.89,-19.756 C 94.35,1.47 84.666,11.671 78.597,20.71 77.241,19.225 70.373,8.095 62.097,8.184 56.233,8.248 46.464,22.127 40.622,27.166 34.552,32.401 30.913,33.324 28.706,33.35 25.286,33.391 21.164,31.642 18.037,21.743 L 11.869,37.23 c 0,0 3.778,9.011 9.889,9.585 z m 46.401,-8.538 c -15.461,18.812 -16.08,19.26 -24.207,32.633 -8.127,13.373 -10.284,22.262 -6.47,25.578 3.843,3.341 10.69,3.526 19.079,-2.674 C 68.234,84.868 83.815,72.102 88.092,61.233 89.204,58.408 68.962,77.57 60.839,82.322 55.965,85.173 49.414,85.923 45.895,82.518 38.713,75.569 70.861,41.201 68.159,38.277 Z m 32.131,15.231 c -1.356,0.452 -9.2,12.041 -9.168,13.558 0.032,1.52 7.393,3.745 10.33,12.913 2.938,9.168 1.808,23.759 1.808,23.759 6.456,-2.97 16.702,-37.001 -2.97,-50.23 z M 238.67,158.41 c -29.66,-1.382 7.102,-11.88 7.102,-11.88 -16.012,-1.033 -45.122,16.859 -21.37,14.139 23.914,-2.761 24.192,18.914 -0.517,18.885 -3.458,-0.004 -2.389,-3.454 -2.389,-3.454 l -10.079,4.455 c 9.541,2.739 13.824,2.222 21.367,1.186 13.3,-1.826 32.878,-22.068 5.886,-23.331 z m -69.634,-12.368 c -15.776,4.961 -28.133,14.053 -35.695,22.183 -6.747,4.081 -26.05,14.114 -13.98,-13.24 6.87,-15.569 -15.866,-0.18 -22.209,5.767 1.326,-6.022 6.089,-16.716 -1.622,-13.755 -7.71,2.962 -16.024,8.988 -30.257,22.345 8.173,-13.165 8.598,-14.544 11.063,-20.935 -2.348,0.606 -4.912,2.591 -7.502,5.384 -61.969,47.396 -53.111,15.025 -41.458,3.432 8.145,-9.924 34.254,-16.982 41.177,-31.023 -35.825,19.235 -38.032,2.764 -8.184,-16.388 5.489,-3.515 41.765,-20.164 14.006,3.205 16.42,-7.644 30.331,-19.457 19.604,-21.773 -13.942,-3.009 -35.868,14.037 -47.081,23.187 -6.595,5.381 -33.54,27.383 -11.731,30.42 -14.14,7.761 -38.61,39.155 -26.998,46.622 7.934,5.1 35.283,-11.471 52.576,-26.736 -6.582,10.544 -11.92,22.797 -12.319,25.926 2.583,0.645 56.737,-62.912 28.288,-4.01 20.627,-17.455 41.351,-48.86 25.47,-9.133 -3.435,8.591 11.66,9.315 27.993,-5.61 -9.54,12.171 -6.583,19.979 14.34,3.386 -12.74,2.838 -8.418,-6.872 24.519,-29.254 z m 53.055,0.301 c -10.172,1.902 -18.214,5.056 -24.305,8.735 0.117,-0.446 0.204,-0.866 0.253,-1.239 0.551,-4.261 8.651,-53.781 21.435,-86.902 5.238,-15.83 18.29,-58.688 -8.587,-58.688 -10.765,0 -19.205,21.361 -17.348,29.263 7.13,-9.041 6.681,-14.628 14.599,-14.527 15.521,0.043 9.937,29.352 5.346,45.785 -8.753,31.333 -16.039,58.185 -20.094,81.195 -0.718,4.075 -1.056,6.987 -1.124,8.998 -4.868,4.014 -7.777,8.316 -8.92,12.142 -11.644,0.756 -25.87,3.996 -10.329,-20.291 -31.204,15.597 -26.169,49.7 10.129,21.024 -2.645,10.864 9.37,17.352 31.596,1.074 -9.189,4.258 -37.984,0.203 7.349,-26.569 z"
       id="path4" />
    <path
       d="m 197.922,33.494 c -1.857,-7.901 6.583,-29.262 17.348,-29.262 26.876,0 13.824,42.858 8.586,58.687 -12.783,33.121 -20.883,82.642 -21.435,86.902 -0.673,5.202 -8.703,19.137 -4.648,-3.873 4.055,-23.011 11.341,-49.863 20.094,-81.195 4.591,-16.434 10.174,-45.742 -5.346,-45.785 -7.918,-0.102 -7.469,5.486 -14.599,14.526"
       fill="#c73d27"
       id="path6" />
    <path
       d="m 237.914,154.341 c -29.66,-1.382 7.102,-11.88 7.102,-11.88 -16.012,-1.033 -45.122,16.86 -21.371,14.14 23.915,-2.761 24.193,18.913 -0.516,18.884 -3.458,-0.004 -2.389,-3.454 -2.389,-3.454 l -10.08,4.455 c 9.542,2.739 13.825,2.222 21.368,1.186 13.3,-1.826 32.878,-22.068 5.886,-23.331 z M 168.28,141.973 c -15.776,4.961 -28.133,14.053 -35.695,22.184 -6.747,4.08 -26.051,14.113 -13.98,-13.241 6.87,-15.569 -15.866,-0.18 -22.209,5.767 1.326,-6.022 6.088,-16.716 -1.622,-13.754 -7.711,2.961 -16.024,8.987 -30.258,22.344 8.174,-13.165 8.599,-14.543 11.064,-20.935 -2.348,0.606 -4.912,2.591 -7.502,5.384 -61.969,47.396 -53.111,15.025 -41.458,3.432 8.145,-9.924 34.254,-16.982 41.177,-31.023 -35.825,19.235 -38.032,2.764 -8.184,-16.388 5.488,-3.514 41.765,-20.164 14.006,3.205 16.42,-7.643 30.331,-19.457 19.604,-21.773 -13.942,-3.009 -35.868,14.037 -47.081,23.187 -6.595,5.382 -33.54,27.383 -11.731,30.421 -14.141,7.76 -38.61,39.154 -26.998,46.621 7.934,5.101 35.283,-11.471 52.576,-26.736 -6.582,10.544 -11.92,22.797 -12.319,25.926 2.583,0.645 56.737,-62.912 28.288,-4.01 20.627,-17.455 41.351,-48.859 25.469,-9.132 -3.434,8.59 11.661,9.314 27.994,-5.611 -9.54,12.171 -6.583,19.98 14.34,3.386 -12.74,2.838 -8.418,-6.872 24.519,-29.254 z m 53.055,0.301 c -23.951,4.478 -36.097,15.897 -38.745,24.762 -11.644,0.756 -25.87,3.997 -10.329,-20.291 -31.204,15.597 -26.169,49.7 10.128,21.024 -2.645,10.865 9.37,17.352 31.597,1.074 -9.189,4.258 -37.984,0.203 7.349,-26.569 z"
       fill="#1370c2"
       id="path8" />
    <path
       d="m 172.385,97.46 c -0.594,-1.917 -12.692,20.088 -12.692,20.088 0,0 -15.403,26.694 -17.074,17.165 -3.728,-21.253 -30.642,41.883 -26.023,44.192 0.548,0.274 17.896,-43.233 20.453,-28.213 2.53,14.862 38.155,-44.123 35.336,-53.232 m -95.989,61.672 c -22.872,28.67 -22.644,42.183 -22.644,42.183 0,0 25.199,-37.551 43.376,-60.971 15.573,-20.065 19.078,-37.639 19.078,-37.639 0,0 -21.374,33.317 -39.81,56.427"
       id="path10" />
    <path
       d="m 60.124,17.725 c 4.391,0.129 13.296,7.096 18.029,16.818 6.231,-12.188 13.815,-17.603 26.391,-8.57 7.316,5.256 22.611,26.044 31.765,27.068 9.911,1.109 18.427,-8.322 22.532,-25.567 -5.681,7.361 -7.995,10.665 -13.687,11.041 -5.875,0.387 -5.359,1.549 -25.89,-19.757 C 98.733,-2.548 89.049,7.653 82.98,16.692 81.624,15.207 74.756,4.077 66.48,4.167 60.616,4.231 50.847,18.11 45.004,23.149 c -6.069,5.235 -9.708,6.158 -11.915,6.183 -3.421,0.041 -7.542,-1.707 -10.67,-11.607 l -6.168,15.488 c 0,0 3.778,9.011 9.889,9.585 14.006,1.316 29.594,-25.202 33.984,-25.073 z M 92.475,57.216 C 93.587,54.391 73.345,73.553 65.221,78.304 60.348,81.155 53.797,81.905 50.277,78.5 43.096,71.552 75.244,37.184 72.542,34.26 57.081,53.072 56.461,53.52 48.335,66.892 c -8.127,13.373 -10.284,22.263 -6.47,25.579 3.843,3.341 10.69,3.525 19.078,-2.675 11.673,-8.946 27.255,-21.712 31.532,-32.58 z m 12.198,-7.726 c -1.356,0.452 -9.2,12.041 -9.168,13.559 0.032,1.52 7.392,3.744 10.33,12.912 2.938,9.168 1.808,23.76 1.808,23.76 6.456,-2.97 16.701,-37.001 -2.97,-50.231 z m 70.659,44.997 c -0.594,-1.917 -12.691,20.088 -12.691,20.088 0,0 -15.404,26.693 -17.075,17.165 -3.727,-21.254 -30.642,41.882 -26.022,44.192 0.548,0.274 17.895,-43.234 20.453,-28.213 2.53,14.861 38.154,-44.123 35.335,-53.232 z m -95.963,65.741 c -22.872,28.67 -22.644,42.183 -22.644,42.183 0,0 25.199,-37.551 43.377,-60.971 15.572,-20.065 19.077,-37.64 19.077,-37.64 0,0 -21.373,33.318 -39.81,56.428 z M 165.108,38.293 c -1.475,0.958 -7.134,12.945 -7.223,14.407 10.984,18.13 31.296,-12.457 34.976,-26.436 0,0 -9.613,16.849 -18.315,17.172 -10.2,0.377 -7.96,-6.103 -9.438,-5.143 z"
       fill="#c73d27"
       id="path12" />
  </g>
</svg>
